<?xml version="1.0" standalone="no"?>
<!DOCTYPE svg PUBLIC "-//W3C//DTD SVG 20010904//EN"
 "http://www.w3.org/TR/2001/REC-SVG-20010904/DTD/svg10.dtd">
<svg version="1.0" xmlns="http://www.w3.org/2000/svg"
 width="256.000000pt" height="256.000000pt" viewBox="0 0 256.000000 256.000000"
 preserveAspectRatio="xMidYMid meet">
<metadata>
Created by potrace 1.11, written by Peter Selinger 2001-2013
</metadata>
<g transform="translate(0.000000,256.000000) scale(0.100000,-0.100000)"
fill="#000000" stroke="none">
<path d="M2130 2233 c-51 -35 -60 -62 -39 -122 11 -33 52 -61 88 -61 50 0 101
50 101 100 0 75 -90 125 -150 83z"/>
<path d="M1347 2041 c-37 -31 -104 -122 -123 -166 -8 -19 -14 -54 -14 -79 0
-40 -3 -46 -36 -65 -60 -36 -118 -47 -150 -30 -48 25 -141 18 -208 -16 -63
-31 -156 -116 -156 -140 0 -8 -4 -15 -8 -15 -10 0 -9 2 -18 -100 -5 -62 -2
-84 15 -129 11 -30 18 -58 15 -62 -8 -13 -102 -37 -169 -44 -33 -4 -67 -8 -75
-10 -8 -2 -46 -7 -85 -11 -72 -6 -134 -26 -146 -46 -4 -7 -3 -21 3 -31 7 -14
7 -17 -1 -13 -13 8 -12 12 -15 -81 -2 -47 2 -73 8 -73 11 0 -14 -20 -25 -20
-3 0 -6 18 -5 40 0 22 4 40 7 40 3 0 6 7 6 15 0 8 -5 15 -11 15 -7 0 -7 3 -1
8 6 4 11 16 11 27 1 11 3 25 5 30 2 6 0 10 -6 10 -5 0 -8 -6 -7 -14 2 -7 -1
-10 -7 -7 -6 4 -8 -3 -5 -19 2 -14 0 -25 -6 -25 -5 0 -10 -5 -10 -11 0 -5 5
-7 10 -4 6 3 10 -1 10 -10 0 -9 -4 -14 -9 -11 -8 5 -8 -14 -1 -34 1 -3 1 -15
1 -27 -1 -12 6 -26 16 -32 12 -7 13 -10 4 -11 -10 0 -11 -4 -3 -12 6 -7 10
-17 10 -21 0 -5 9 -20 21 -33 11 -13 22 -27 23 -32 2 -4 6 -6 11 -4 4 1 7 -4
7 -12 0 -12 22 -34 88 -88 18 -14 21 -14 26 -2 4 10 2 12 -6 8 -7 -4 -8 -3 -4
4 5 8 1 10 -11 6 -14 -4 -15 -3 -4 4 9 7 10 12 2 16 -6 4 -11 2 -11 -5 0 -6
-9 0 -21 15 -11 14 -25 23 -31 20 -7 -5 -8 -2 -3 6 6 9 4 11 -5 5 -8 -5 -11
-4 -7 2 4 6 -2 18 -13 28 -11 10 -17 22 -13 28 4 6 1 7 -7 2 -9 -6 -11 -4 -5
5 5 8 4 11 -2 7 -6 -4 -10 1 -10 11 0 42 -3 48 -13 32 -7 -12 -9 -10 -7 8 2
31 12 27 27 -10 7 -18 26 -46 41 -63 15 -16 28 -33 29 -37 0 -5 3 -8 6 -7 3 1
19 -11 34 -26 15 -15 32 -28 37 -28 4 -1 7 -6 5 -11 -2 -5 4 -6 12 -3 9 4 18
2 22 -4 3 -6 12 -8 20 -5 7 3 16 1 19 -5 4 -5 11 -7 16 -4 5 4 9 3 9 -2 0 -4
27 -8 59 -8 33 1 58 -2 55 -6 -2 -4 -17 -5 -34 -4 -16 1 -28 -1 -25 -5 2 -3
-2 -7 -10 -7 -8 0 -11 5 -8 10 4 6 -2 8 -14 5 -11 -3 -28 -1 -38 5 -14 7 -16
7 -9 -4 6 -11 5 -12 -8 -2 -8 7 -18 10 -21 6 -4 -3 -7 0 -7 8 0 11 -2 11 -10
-1 -6 -10 -10 -11 -10 -2 0 6 -4 12 -8 12 -5 0 -9 -7 -9 -15 0 -8 4 -12 8 -9
4 2 10 0 14 -6 4 -6 10 -8 15 -5 5 3 11 1 14 -4 4 -5 17 -8 31 -6 14 1 25 -3
25 -9 0 -8 2 -8 8 0 4 6 20 10 35 9 15 -1 30 2 33 7 3 4 9 6 14 3 5 -3 15 4
23 15 7 11 16 18 19 15 7 -7 60 44 88 85 51 73 102 120 145 134 18 5 20 2 17
-32 -7 -70 82 -161 178 -181 138 -30 274 6 368 95 24 24 62 50 83 58 21 9 55
25 76 36 35 19 39 19 50 3 10 -13 10 -20 -2 -33 -31 -34 -44 -86 -42 -166 4
-121 32 -159 115 -156 56 2 95 35 130 107 18 35 32 66 32 69 0 2 7 20 15 40
l16 37 55 -50 c53 -49 69 -57 124 -65 39 -5 80 13 80 35 0 41 -52 109 -104
136 -17 10 -17 11 6 34 14 13 34 38 45 54 14 20 42 38 82 53 34 13 68 30 76
39 8 8 15 12 15 8 0 -3 12 7 26 22 15 15 20 19 13 9 -13 -18 -13 -18 8 -6 12
8 19 20 15 28 -3 10 -1 13 6 8 7 -4 21 -1 32 7 19 13 19 15 3 28 -15 12 -16
12 -10 -3 3 -10 2 -20 -2 -22 -15 -10 -21 6 -10 26 8 15 14 17 22 9 13 -13 30
-15 22 -2 -3 6 3 14 12 20 10 6 14 11 8 11 -5 0 -4 4 2 8 7 4 14 17 16 27 2
11 7 27 10 35 12 28 16 70 6 65 -5 -4 -9 -1 -9 5 0 6 -5 8 -10 5 -7 -4 -7 -12
0 -25 14 -25 13 -30 -6 -30 -8 0 -12 -5 -9 -10 4 -6 12 -8 18 -4 7 3 2 -3 -10
-14 -13 -11 -18 -23 -13 -28 5 -5 1 -19 -9 -33 -14 -18 -20 -21 -26 -11 -6 9
-4 11 5 5 10 -6 12 -4 7 8 -3 9 -2 19 3 22 5 3 7 14 5 25 -2 11 1 20 7 20 6 0
5 7 -3 17 -10 11 -10 14 -1 9 6 -4 12 -3 12 3 0 5 -4 12 -8 15 -5 3 -8 15 -7
28 1 13 -2 29 -8 36 -5 6 -6 12 -2 12 5 0 0 9 -9 19 -10 10 -13 22 -8 25 5 3
-13 29 -39 57 -35 38 -46 56 -38 65 6 8 5 13 -6 17 -8 4 -14 1 -12 -5 1 -7
-15 -12 -40 -13 -30 0 -51 -8 -70 -25 -15 -14 -21 -17 -14 -7 8 9 9 17 3 17
-5 0 -18 -20 -28 -44 l-19 -45 -22 47 c-14 29 -35 54 -55 66 -18 10 -54 36
-80 57 -60 50 -200 135 -246 150 -50 16 -59 24 -66 64 -11 58 -75 173 -126
225 -56 57 -85 62 -133 21z m-1124 -914 c3 -7 -3 -13 -14 -13 -13 0 -15 3 -7
13 6 7 12 13 13 13 2 0 5 -6 8 -13z m-36 -272 c0 -8 -4 -12 -9 -9 -5 3 -6 10
-3 15 9 13 12 11 12 -6z m94 -122 c13 -16 12 -17 -3 -4 -17 13 -22 21 -14 21
2 0 10 -8 17 -17z"/>
<path d="M1862 1950 c-12 -12 -22 -30 -22 -40 0 -26 34 -60 60 -60 11 0 29 9
40 20 11 11 20 29 20 40 0 25 -34 60 -58 60 -10 0 -28 -9 -40 -20z"/>
<path d="M2026 1714 c-27 -27 -12 -64 26 -64 15 0 38 27 38 44 0 8 -31 36 -40
36 -5 0 -16 -7 -24 -16z"/>
<path d="M2204 1578 c-4 -7 -3 -8 4 -4 7 4 19 3 28 -2 15 -8 15 -10 0 -15 -10
-4 -15 -3 -12 2 13 21 -51 7 -76 -17 -25 -23 -30 -51 -7 -36 5 3 7 9 4 14 -3
4 17 7 44 6 34 -2 48 1 45 9 -3 7 6 12 25 13 21 0 32 -5 36 -19 4 -11 10 -17
15 -14 5 3 14 -4 20 -15 6 -11 7 -20 3 -20 -4 -1 3 -7 17 -15 14 -8 19 -14 13
-15 -15 0 -18 -20 -4 -20 19 0 20 31 1 50 -11 11 -17 20 -13 20 3 0 -4 8 -15
19 -12 10 -18 21 -14 25 4 4 2 6 -5 4 -6 -1 -18 5 -25 15 -15 21 -74 31 -84
15z m61 -7 c3 -5 2 -12 -3 -15 -5 -3 -9 1 -9 9 0 17 3 19 12 6z m-92 -26 c-3
-9 -8 -14 -10 -11 -3 3 -2 9 2 15 9 16 15 13 8 -4z m41 -3 c2 -4 -4 -8 -14 -8
-10 0 -16 4 -14 8 3 4 9 8 14 8 5 0 11 -4 14 -8z"/>
<path d="M2277 1531 c2 -2 -2 -10 -7 -16 -7 -9 4 -27 40 -63 30 -30 46 -54 39
-57 -7 -5 -5 -13 5 -24 9 -10 13 -21 10 -24 -4 -4 1 -9 10 -13 9 -3 16 -10 16
-16 0 -5 -5 -6 -12 -2 -7 4 -8 3 -4 -5 6 -8 12 -9 20 -2 7 6 16 8 20 4 5 -6 2
29 -4 47 -1 3 -3 10 -4 15 0 6 -7 20 -13 31 -7 12 -9 25 -5 30 4 5 -1 2 -10
-5 -20 -15 -42 -5 -34 16 3 8 1 11 -4 8 -6 -3 -11 -1 -11 4 -1 6 -3 16 -4 21
-1 6 -3 16 -4 23 -1 8 -4 7 -11 -3 -5 -8 -10 -10 -10 -4 0 5 -6 17 -12 25 -7
8 -12 12 -11 10z m17 -37 c3 -8 10 -12 16 -9 5 3 10 4 10 1 0 -15 -20 -13 -35
4 -10 11 -13 20 -8 20 6 0 14 -7 17 -16z m102 -119 c-2 -7 0 -17 6 -23 13 -13
-4 -23 -22 -11 -8 5 -10 9 -5 9 6 0 11 9 12 21 2 16 -1 18 -11 10 -17 -14 -29
-2 -15 16 9 10 15 11 26 2 8 -7 12 -18 9 -24z"/>
<path d="M2370 1286 c0 -2 7 -9 15 -16 13 -11 14 -10 9 4 -5 14 -24 23 -24 12z"/>
<path d="M235 800 c10 -11 20 -20 23 -20 3 0 -3 9 -13 20 -10 11 -20 20 -23
20 -3 0 3 -9 13 -20z"/>
<path d="M280 756 c0 -2 8 -10 18 -17 15 -13 16 -12 3 4 -13 16 -21 21 -21 13z"/>
</g>
</svg>
